<svg width="187" height="187" viewBox="0 0 187 187" fill="none" xmlns="http://www.w3.org/2000/svg">
<path fill-rule="evenodd" clip-rule="evenodd" d="M93.4707 186.374C144.874 186.374 186.545 144.704 186.545 93.3002C186.545 41.8969 144.874 0.226318 93.4707 0.226318C42.0674 0.226318 0.39679 41.8969 0.39679 93.3002C0.39679 144.704 42.0674 186.374 93.4707 186.374ZM109.326 153.196V144.094L120.189 147.031V135.873H123.712V129.708H130.465L130.172 31.0552H54.7144V128.957L109.326 153.196Z" fill="white"/>
<path d="M118.427 144.682L110.5 142.626V55.7183L66.7523 36.3402L118.427 49.8462V144.682Z" fill="white"/>
<path d="M124.593 38.3954L73.5053 33.1105H128.41V127.652H124.593V38.3954Z" fill="white"/>
</svg>
